HIERARCHY
ROOT Hips
{
  OFFSET 57.8838 95.319 338.509
  CHANNELS 6 Xposition Yposition Zposition Zrotation Xrotation Yrotation
  JOINT LeftUpLeg
  {
    OFFSET 8.64259 1.95398 -2.38835
    CHANNELS 3 Zrotation Xrotation Yrotation
    JOINT LeftLeg
    {
      OFFSET 43.7702 0 0
      CHANNELS 3 Zrotation Xrotation Yrotation
      JOINT LeftFoot
      {
        OFFSET 40.6238 0 0
        CHANNELS 3 Zrotation Xrotation Yrotation
        JOINT LeftToeBase
        {
          OFFSET 12.7242 0 0
          CHANNELS 3 Zrotation Xrotation Yrotation
          End Site
          {
            OFFSET 0 0 0
          }
        }
      }
    }
  }
  JOINT RightUpLeg
  {
    OFFSET -8.2249 1.95398 -2.59336
    CHANNELS 3 Zrotation Xrotation Yrotation
    JOINT RightLeg
    {
      OFFSET 43.5653 0 0
      CHANNELS 3 Zrotation Xrotation Yrotation
      JOINT RightFoot
      {
        OFFSET 40.6238 0 0
        CHANNELS 3 Zrotation Xrotation Yrotation
        JOINT RightToeBase
        {
          OFFSET 12.7242 0 0
          CHANNELS 3 Zrotation Xrotation Yrotation
          End Site
          {
            OFFSET 0 0 0
          }
        }
      }
    }
  }
  JOINT Spine
  {
    OFFSET 0.165834 0.87714 6.61349
    CHANNELS 3 Zrotation Xrotation Yrotation
    JOINT Spine1
    {
      OFFSET 7.38963 1.71661e-005 0
      CHANNELS 3 Zrotation Xrotation Yrotation
      JOINT Spine2
      {
        OFFSET 11.9445 1.14441e-005 0
        CHANNELS 3 Zrotation Xrotation Yrotation
        JOINT Spine3
        {
          OFFSET 14.7254 4.19617e-005 0
          CHANNELS 3 Zrotation Xrotation Yrotation
          JOINT Spine4
          {
            OFFSET 10.9679 0 0
            CHANNELS 3 Zrotation Xrotation Yrotation
            JOINT RightShoulder
            {
              OFFSET 2.46616 -1.6653 3.69651
              CHANNELS 3 Zrotation Xrotation Yrotation
              JOINT RightArm
              {
                OFFSET 13.0012 0 0
                CHANNELS 3 Zrotation Xrotation Yrotation
                JOINT RightForeArm
                {
                  OFFSET 28.7848 1.62311e-005 0
                  CHANNELS 3 Zrotation Xrotation Yrotation
                  JOINT RightHand
                  {
                    OFFSET 26.5688 1.62095e-005 0
                    CHANNELS 3 Zrotation Xrotation Yrotation
                    End Site
                    {
                      OFFSET 0 0 0
                    }
                  }
                }
              }
            }
            JOINT LeftShoulder
            {
              OFFSET 2.38034 -1.29275 -3.7523
              CHANNELS 3 Zrotation Xrotation Yrotation
              JOINT LeftArm
              {
                OFFSET 16.3182 6.07031e-005 0
                CHANNELS 3 Zrotation Xrotation Yrotation
                JOINT LeftForeArm
                {
                  OFFSET 27.0901 0 0
                  CHANNELS 3 Zrotation Xrotation Yrotation
                  JOINT LeftHand
                  {
                    OFFSET 24.5451 1.51738e-005 0
                    CHANNELS 3 Zrotation Xrotation Yrotation
                    End Site
                    {
                      OFFSET 0 0 0
                    }
                  }
                }
              }
            }
            JOINT Neck
            {
              OFFSET 5.0226 -0.0266342 0
              CHANNELS 3 Zrotation Xrotation Yrotation
              JOINT Head
              {
                OFFSET 6.69364 2.86102e-005 0
                CHANNELS 3 Zrotation Xrotation Yrotation
                End Site
                {
                  OFFSET 0 0 0
                }
              }
            }
          }
        }
      }
    }
  }
}
MOTION
Frames:	18
Frame Time:	0.0416667
-113.905 93.416 120.775 97.9149 42.2584 87.3193 179.481 21.2846 85.2494 -31.9566 5.3604 0.521976 56.4666 3.82405 7.49339 54.9196 13.5619 13.6665 173.977 5.13615 97.1259 -32.5711 -3.10643 -0.111906 75.8941 -6.43022 10.2138 28.7556 -0.0713055 2.70424 0.115292 8.55108 -91.0008 9.76555 -0.223275 -1.96754 -1.90684 -0.309621 -1.95582 -24.4303 0.378255 -1.94372 -4.41765 0.378265 -1.94372 91.4185 -58.0786 -97.1055 16.1 -11.4626 -14.7522 -1.3845 -9.94712 -22.0234 -11.6067 -0.700068 1.89426 -82.251 -58.6073 91.0488 -31.5729 -28.014 -19.8609 4.54464 77.7521 0.0410583 3.57779 -0.27873 -12.6185 10.3038 2.96219 -2.6109 -22.0009 1.27122 12.7475 
-108.096 93.1452 115.33 96.1674 42.1445 89.0222 177.129 22.4685 87.2234 -6.28821 3.68124 -0.599588 52.4326 -2.84695 5.3109 42.3298 6.40434 11.6962 173.935 -1.20122 97.6265 -27.5495 -2.44918 -0.505531 75.2422 -9.85221 9.54286 33.0425 -5.52475 2.28574 0.339954 8.5544 -91.012 9.76251 0.21959 -2.02465 -1.91002 0.130293 -2.03235 -24.4341 0.817814 -1.86516 -4.42145 0.817823 -1.86515 90.4674 -57.3185 -98.5825 15.2283 -11.6753 -17.1676 -1.81122 -9.30449 -24.0164 -12.6098 -0.790766 2.1692 -81.4876 -59.0813 92.1263 -27.4194 -28.4181 -13.8279 2.73263 77.0917 0.0444179 3.22274 -0.339493 -13.6954 9.15863 2.56342 -1.61049 -20.3208 0.956601 11.9301 
-101.606 91.1343 109.69 95.0644 40.4215 90.3467 175.868 29.6612 90.2519 -5.941 2.5212 -0.492541 57.7552 -3.81933 5.41076 41.9224 6.20451 11.6737 174.325 -7.1088 98.0786 -26.0418 -2.66982 -1.46256 75.421 -15.0713 7.75538 38.3465 -12.5604 0.600236 0.749023 8.65731 -90.9523 9.56438 1.06398 -1.96901 -2.10771 0.976301 -2.01391 -24.638 1.60649 -1.55834 -4.62538 1.6065 -1.55834 89.434 -57.3641 -100.028 13.0187 -15.0619 -20.2653 -2.99345 -8.44066 -27.1183 -13.0942 -0.853574 2.45396 -80.9584 -59.647 92.8793 -24.9241 -28.526 -9.12465 1.28155 74.7132 0.038847 3.60338 -0.373102 -13.1236 9.05375 2.29924 -0.075114 -19.2963 0.683806 10.5075 
-94.446 88.6345 103.336 92.4354 38.2329 91.6925 175.42 32.7073 92.1464 -6.50404 3.86007 -0.276986 56.6186 -2.39813 5.5439 42.8883 6.64604 10.9018 174.064 -10.7813 96.9742 -27.2696 -4.51763 -2.37211 75.1985 -17.079 6.88081 41.9486 -18.0322 -2.24548 1.0906 8.71954 -90.6704 9.44478 1.87298 -1.46854 -2.22576 1.80653 -1.54956 -24.7689 2.22771 -0.837599 -4.75628 2.2277 -0.837617 88.1144 -57.528 -101.844 10.8533 -20.2507 -24.8222 -4.65974 -7.53278 -30.8093 -13.9699 -0.853471 1.97485 -80.5681 -60.0414 93.428 -24.0886 -29.1544 -6.05356 1.16198 72.0921 0.0309005 3.50825 -0.400993 -13.5469 9.39924 2.32947 0.732268 -17.3424 0.833285 9.58068 
-86.7223 86.6934 95.7418 86.8462 40.7111 93.1115 176.608 41.8993 89.2779 -21.9309 5.73153 -1.72031 53.2144 -6.78944 8.37182 39.4947 4.90422 11.3396 173.302 -11.3761 94.1557 -30.5039 -5.79453 -3.01254 73.1631 -10.8379 10.941 43.5349 -21.0978 -4.97406 1.14318 8.64278 -90.1078 9.59327 2.23068 -0.385415 -2.07585 2.21155 -0.483269 -24.6263 2.24332 0.303158 -4.61363 2.24332 0.303156 88.9916 -58.5043 -100.406 11.7691 -22.9333 -27.869 -6.50807 -5.98532 -35.5133 -15.4793 -1.08229 2.98518 -81.2339 -57.8505 92.406 -25.8005 -29.9993 -5.63188 2.26757 72.1291 0.0245502 3.84004 -0.41358 -13.6937 14.2155 1.15887 0.0348206 -18.4199 -0.120482 8.61194 
-78.9684 85.4736 88.294 82.7484 47.1671 92.0091 -178.796 46.8668 80.6819 -37.2131 10.9183 -3.7415 54.9355 -3.66836 11.279 39.0293 4.42254 6.47199 169.811 -6.47791 91.0686 -42.3936 -4.89285 -1.1509 63.608 2.55725 14.8482 39.1007 -16.188 -10.813 1.16458 9.32976 -89.4865 8.20179 2.55012 0.860137 -3.46691 2.5855 0.74699 -26.015 2.17371 1.58704 -6.00239 2.17369 1.58703 89.3789 -57.2526 -100.13 14.3119 -22.1259 -29.4598 -6.19466 -2.35936 -41.4758 -17.6324 -1.26729 3.1861 -82.6 -55.3323 90.3146 -29.6686 -27.6106 -10.8541 1.77907 63.6706 0.00848954 4.10525 -0.524272 -15.3687 24.0839 -1.50853 3.89918 -18.9523 -3.17576 2.32884 
-70.9675 83.1662 80.7739 80.3329 51.942 92.7685 -173.672 48.0571 74.1651 -52.764 14.5786 -3.60423 60.4159 6.73423 16.0396 46.0104 7.65586 5.73893 167.075 4.86225 87.359 -66.6535 -8.90743 -0.121707 63.0521 -1.38621 4.5772 37.5883 -13.1762 -7.96832 0.987999 9.95639 -89.3736 6.94817 2.24158 1.13895 -4.72126 2.28953 1.03914 -27.2632 1.79567 1.76004 -7.25053 1.79569 1.76005 88.8456 -57.1359 -100.902 12.7266 -22.0177 -35.5419 -6.41072 -4.668 -38.2052 -17.466 -1.23717 3.06363 -84.4687 -56.6507 87.8065 -28.0806 -23.2573 -12.5116 -2.57703 48.8382 -2.3282e-005 6.64714 -0.828266 -15.4744 26.2275 -3.66646 4.66967 -15.8106 -5.45973 1.73192 
-63.1214 81.2118 72.944 82.9569 54.3934 89.8284 -174.362 42.6505 71.592 -61.8695 16.2242 -1.51526 61.6655 13.1143 23.7995 53.5186 11.3959 6.94989 167.76 26.6567 94.0334 -85.1387 0.894835 -2.64956 70.9825 -12.6637 3.74311 43.1084 -21.8284 -8.77489 0.83419 10.618 -89.4413 5.624 1.89975 1.05184 -6.04595 1.94422 0.96718 -28.5849 1.49583 1.57419 -8.57231 1.49584 1.57419 87.3934 -55.2127 -103.425 11.5877 -15.3491 -44.3281 -1.67199 -4.91579 -30.5328 -19.2015 -1.21748 2.19273 -87.4396 -58.7768 83.9614 -24.4604 -19.5205 -23.995 -5.05071 45.1756 -0.0664217 9.12508 -1.05608 -15.0728 30.2155 -4.64219 4.86647 -13.9026 -6.80262 3.66345 
-55.0556 81.0935 65.4553 91.2546 60.049 86.8999 -178.695 32.2399 76.524 -67.6418 19.0802 1.8597 61.8709 16.2915 26.7285 60.6102 15.4456 9.07246 172.206 47.4579 93.5914 -75.6465 2.65513 -2.357 72.8362 -15.5377 2.61132 43.6906 -23.1239 -9.83178 0.490305 10.8911 -90.1573 5.09283 0.914873 -0.325119 -6.57784 0.89969 -0.365082 -29.1156 0.970298 -0.0351013 -9.10293 0.970281 -0.0351167 88.8492 -48.8726 -102.871 8.40115 -3.47088 -58.3578 1.77716 -6.59966 -20.6235 -17.4819 -0.816701 0.230712 -88.9068 -52.5601 80.8546 -22.1768 -17.0832 -44.9081 -5.03457 42.2408 -0.0102318 13.0708 -1.26838 -13.2068 30.9386 -5.62726 2.35776 -15.0173 -7.04172 5.94422 
-45.666 83.7053 57.3071 98.1558 69.0105 85.9239 175.217 20.0357 85.3454 -67.5683 23.3647 6.7237 61.795 16.5087 23.6874 64.4024 18.4558 12.3539 -178.265 58.9165 79.987 -52.2629 -4.47446 -0.26139 69.5069 -3.81325 11.443 38.2431 -14.5343 -9.58048 0.264611 10.4791 -90.9348 5.91547 0.135821 -1.83512 -5.75679 0.0549244 -1.83933 -28.2827 0.68101 -1.70953 -8.27002 0.681013 -1.70954 93.8741 -36.0253 -97.4962 5.55868 13.1257 -65.3234 3.39402 -4.26096 -15.2801 -12.3298 -0.474082 -0.902144 -89.051 -41.9796 78.399 -18.9031 -17.2623 -67.0809 7.66051 37.8459 -18.1272 16.2383 -1.36401 -12.126 28.9415 -9.056 -2.48492 -18.5014 -8.56654 5.7503 
-32.9832 91.4387 44.8219 91.5371 78.4383 96.6245 177.767 6.93903 99.5877 -49.1133 32.4557 11.616 59.49 4.50967 6.8189 64.5831 17.3744 8.25454 -177.915 64.6107 69.5904 -47.0354 -6.66702 2.38155 61.6318 7.77309 16.0386 24.7181 5.99104 -3.31178 -0.302293 9.30489 -91.5162 8.23627 -1.26905 -2.91043 -3.43724 -1.39586 -2.85183 -25.9465 -0.3362 -3.15703 -5.9339 -0.336203 -3.15704 96.4133 -26.61 -94.5626 -8.12295 22.1057 -52.9311 1.26455 -6.89432 -20.8375 -9.55875 -0.167381 -3.16675 -86.579 -33.6013 80.7728 -16.9349 -19.8684 -75.8958 26.4911 26.0815 -51.763 13.6039 -1.56797 -14.6815 19.6105 -11.1202 -4.70453 -18.3929 -9.86541 3.4288 
-18.2985 102.536 27.9388 60.1709 81.9114 124.287 -172.655 -5.29912 106.659 -20.6261 26.9148 7.30316 39.9151 -16.8176 -9.93489 33.0786 1.27286 10.5172 -179.981 61.5767 63.3709 -38.5995 -8.14521 4.1214 55.5875 13.8734 15.7536 16.2023 17.7082 -2.7167 -0.916396 7.99351 -91.378 10.8532 -2.46056 -2.51535 -0.817606 -2.56886 -2.40466 -23.3423 -1.59125 -3.13813 -3.32964 -1.59125 -3.13812 97.7062 -24.5715 -92.0985 -15.2531 28.898 -40.1132 3.25682 -0.367297 -19.528 -7.60239 -0.00346205 -5.71705 -84.571 -34.54 84.6005 -12.0736 -27.6231 -68.5919 28.9068 12.4131 -74.2159 26.9236 -2.16353 -12.5832 6.91629 -10.7869 -7.41298 -17.0312 -9.55195 2.75432 
-4.20803 106.881 12.7641 92.6955 87.1058 88.4688 -174.37 -6.95319 108.181 -50.1236 30.1993 12.9529 45.9531 -11.7388 -7.56018 24.0148 -3.19649 10.9566 175.403 51.2236 62.1833 -31.1944 -3.47487 4.08275 54.8137 14.5718 13.2827 17.5913 16.0397 -3.47128 -0.898226 8.10596 -91.1151 10.6383 -2.30197 -2.00783 -1.03201 -2.38809 -1.90458 -23.5637 -1.59233 -2.60662 -3.55105 -1.59233 -2.60663 98.8429 -21.3786 -90.0065 -28.3091 20.564 -13.4918 4.70277 12.2918 -7.95855 -5.725 0.0823993 -7.55509 -82.1601 -29.5113 88.4138 0.0456867 -38.9635 -46.8092 32.4555 20.46 -64.6943 31.1745 -1.73579 -9.82483 -1.77937 -12.3573 -8.51295 -12.5147 -11.2838 0.206954 
10.4693 105.291 -3.00194 123.466 87.8307 54.3406 -179.29 -7.83833 106.448 -72.7692 22.3819 13.4872 48.0682 -10.302 -5.16421 21.8409 -4.19758 9.95155 172.675 38.6828 62.7627 -15.568 3.91083 2.36339 44.732 25.0504 21.3103 17.8809 16.277 -5.32859 -0.982857 8.2842 -90.9347 10.2874 -2.38552 -1.65312 -1.38222 -2.45595 -1.54651 -23.9198 -1.77852 -2.29356 -3.90717 -1.77851 -2.29355 98.9885 -24.5453 -89.2628 -26.5094 -0.36101 12.4917 5.08732 -0.543388 0.549562 -3.20779 -0.0268079 -5.40089 -79.825 -23.1282 92.5242 17.4124 -36.5876 -10.6317 13.5846 41.2707 -23.5443 16.1146 -0.943607 -10.0084 -3.70201 -12.8348 -7.19138 -10.1087 -11.9442 -1.35418 
25.873 97.3584 -19.0832 108.659 87.3335 65.6892 177.758 -9.08138 102.594 -89.011 15.9473 10.878 49.7191 -8.68109 -1.25493 27.4602 -1.37596 10.3011 168.647 33.0692 66.3169 -18.7254 5.95634 3.81369 46.4928 23.4774 18.1411 21.2337 11.0666 -4.18386 -1.23002 8.22685 -90.5241 10.4054 -2.69076 -0.787352 -1.26311 -2.72278 -0.668107 -23.8137 -2.32981 -1.56001 -3.80102 -2.3298 -1.56002 101.746 -32.2326 -82.952 -10.4466 -1.25746 33.042 5.2191 -1.72656 0.00280943 -5.40547 -0.0422922 -4.27945 -80.3246 -26.6897 91.8384 30.0542 -33.8652 27.4575 -0.142635 60.0875 3.1218 7.11903 -0.530959 -13.1638 -6.43317 -11.9777 -6.43283 -8.61211 -11.3044 -1.67814 
37.451 85.3092 -30.2313 94.8752 75.1688 86.7965 -177.461 2.70151 97.6852 -116.143 11.7613 6.49697 54.3147 -2.50379 7.04062 44.6607 7.56011 10.7405 161.62 45.2047 82.0032 -56.4834 -14.381 6.94005 60.3516 4.86571 4.85173 30.1416 -1.83261 2.50579 -0.210081 9.2373 -91.5349 8.39349 -1.09528 -2.99963 -3.28005 -1.22622 -2.94859 -25.7888 -0.143448 -3.18988 -5.77619 -0.143447 -3.18987 104.224 -42.3839 -78.4892 -3.73474 7.47418 27.018 3.35091 -0.0175256 0.706137 0.271049 -0.00877725 -4.03538 -78.2543 -42.5917 96.2931 14.345 -34.154 48.5041 5.97978 64.6678 0.0193637 4.33942 -0.162488 -11.5085 2.54158 -9.22729 -0.849996 -8.53867 -9.18044 1.86191 
45.8159 81.1197 -37.929 98.4307 67.5864 89.6368 -179.735 31.462 85.3177 -120.214 5.84118 5.61643 56.1651 2.46392 12.365 52.3591 12.3006 14.496 154.86 41.3793 92.9149 -70.7272 -18.7839 8.01661 69.1463 -7.4354 1.02017 35.3443 -8.39581 2.79717 0.495272 10.3394 -92.31 6.17275 0.0150222 -4.54497 -5.50613 -0.18482 -4.54125 -27.9818 1.37897 -4.33117 -7.96915 1.37897 -4.33117 95.4901 -52.988 -91.9837 -8.62751 -0.554946 0.928186 5.33147 5.38373 -10.0592 -3.62632 -0.0406588 -4.5895 -78.7068 -51.0703 95.7891 -31.7952 -32.1454 20.4312 -170.145 89.976 172.247 2.44687 -0.305727 -12.8268 7.8022 -7.76164 -3.62351 -9.62563 -7.17428 4.39365 
52.8374 83.4532 -45.0101 98.7352 55.3286 85.4968 -178.81 49.4095 81.2826 -84.5123 8.9381 4.58517 59.7165 5.97203 11.8014 59.0792 15.6763 12.8577 165.218 31.7446 93.1156 -67.0167 -15.1439 3.21446 71.33 -17.1785 -5.95784 40.3735 -15.4041 -0.261837 1.21139 10.4173 -91.0161 6.03847 1.99316 -2.05834 -5.63277 1.90068 -2.14405 -28.1724 2.51939 -1.36413 -8.15973 2.5194 -1.36413 89.7388 -52.2039 -100.709 -8.48896 -5.42635 -21.9384 4.1342 6.92882 -33.6863 -1.68974 -0.0306119 -4.61762 -81.9523 -52.2434 91.0146 -32.2374 -19.573 0.189674 20.1263 79.9854 -25.4342 14.1417 -0.830734 -9.20167 5.51919 -5.596 -3.2195 -9.65444 -5.22668 4.69433 
